<svg version="1.1" xmlns="http://www.w3.org/2000/svg" xmlns:xlink="http://www.w3.org/1999/xlink" x="0px" y="0px" viewBox="0 0 48 48" enable-background="new 0 0 48 48" xml:space="preserve">
<path fill="#BBDEFB" d="M38,39H10.5c-1.1,0-1.8-0.9-1.6-2l5.5-26c0.2-1.1,1.3-2,2.4-2h27.5c1.1,0,1.8,0.9,1.6,2l-5.5,26
	C40.2,38.1,39.1,39,38,39z"></path>
<path fill="#3F51B5" d="M45.4,14l0.6-3c0.2-1.1-0.5-2-1.6-2H17c-1.1,0-2.2,0.9-2.4,2l-0.6,3H45.4z"></path>
<path fill="#2196F3" d="M10.3,21H2v-4h9.2L10.3,21z M8.4,30H2v2h6L8.4,30z M9.7,24H2v3h7L9.7,24z M17.1,18l-2.6,12h23.3l2.6-12H17.1
	z"></path>
<polygon fill="#FFFFFF" points="18.7,20 17.7,25 36.9,25 38,20 "></polygon>
<g>
	<polygon fill="#37474F" points="21.5,24 22.1,21 20.1,21 19.4,24 	"></polygon>
</g>
</svg>
