<svg version="1.1" xmlns="http://www.w3.org/2000/svg" xmlns:xlink="http://www.w3.org/1999/xlink" x="0px" y="0px" width="48px" height="48px" viewBox="0 0 48 48" enable-background="new 0 0 48 48" xml:space="preserve">
<path fill="#78909C" d="M6,30v10c0,1.104,0.896,2,2,2h32c1.104,0,2-0.896,2-2V30H6z"></path>
<path fill="#455A64" d="M39,8c0-1.104-0.896-2-2-2H11C9.896,6,9,6.896,9,8L6,30c0,1.104,0.896,2,2,2h32c1.104,0,2-0.896,2-2L39,8z"></path>
<rect x="9" y="32" fill="#263238" width="22" height="7"></rect>
<g>
	<rect x="11" y="35" fill="#FDD835" width="2" height="4"></rect>
	<rect x="15" y="35" fill="#FDD835" width="2" height="4"></rect>
	<rect x="19" y="35" fill="#FDD835" width="2" height="4"></rect>
	<rect x="23" y="35" fill="#FDD835" width="2" height="4"></rect>
	<rect x="27" y="35" fill="#FDD835" width="2" height="4"></rect>
</g>
<circle fill="#64DD17" cx="37" cy="37" r="2"></circle>
<path fill="#FFB74D" d="M28,15c0,2.209-1.791,4-4,4s-4-1.791-4-4s1.791-4,4-4S28,12.791,28,15"></path>
<path fill="#90CAF9" d="M31,25c0,0-1.938-4-7-4c-5.063,0-7,4-7,4v2h14V25z"></path>
</svg>
